<svg xmlns="http://www.w3.org/2000/svg" viewBox="0 0 512 512" fill="none">
  <defs>
    <linearGradient id="bg" x1="0%" y1="0%" x2="100%" y2="100%">
      <stop offset="0%" style="stop-color:#a855f7"/>
      <stop offset="100%" style="stop-color:#ec4899"/>
    </linearGradient>
  </defs>
  <rect width="512" height="512" rx="100" fill="url(#bg)"/>
  <path d="M256 100c-15 0-27 12-27 27v32c0 6-5 11-11 11h-32c-15 0-27 12-27 27v27c0 15 12 27 27 27h32c6 0 11 5 11 11v32c0 15 12 27 27 27s27-12 27-27v-32c0-6 5-11 11-11h32c15 0 27-12 27-27v-27c0-15-12-27-27-27h-32c-6 0-11-5-11-11v-32c0-15-12-27-27-27z" fill="white" opacity="0.9"/>
  <circle cx="256" cy="350" r="20" fill="white"/>
  <path d="M186 375h140c10 0 20 8 20 20v15H166v-15c0-12 10-20 20-20z" fill="white" opacity="0.7"/>
</svg>
