<svg xmlns="http://www.w3.org/2000/svg" viewBox="0 0 192 192" fill="none">
  <defs>
    <linearGradient id="bg" x1="0%" y1="0%" x2="100%" y2="100%">
      <stop offset="0%" style="stop-color:#a855f7"/>
      <stop offset="100%" style="stop-color:#ec4899"/>
    </linearGradient>
  </defs>
  <rect width="192" height="192" rx="40" fill="url(#bg)"/>
  <path d="M96 40c-5.5 0-10 4.5-10 10v12c0 2.2-1.8 4-4 4H70c-5.5 0-10 4.5-10 10v10c0 5.5 4.5 10 10 10h12c2.2 0 4 1.8 4 4v12c0 5.5 4.5 10 10 10s10-4.5 10-10v-12c0-2.2 1.8-4 4-4h12c5.5 0 10-4.5 10-10V76c0-5.5-4.5-10-10-10h-12c-2.2 0-4-1.8-4-4V50c0-5.5-4.5-10-10-10z" fill="white" opacity="0.9"/>
  <circle cx="96" cy="130" r="8" fill="white"/>
  <path d="M70 140h52c4 0 8 3 8 8v6H62v-6c0-5 4-8 8-8z" fill="white" opacity="0.7"/>
</svg>
